<?xml version="1.0" encoding="UTF-8"?>
<svg version="1.1" xmlns="http://www.w3.org/2000/svg" width="1920" height="631">
<path d="M0 0 C14.71778987 -0.04694943 29.43556968 -0.08210031 44.15341949 -0.10362434 C50.98886129 -0.11388885 57.82425626 -0.12785551 64.65966797 -0.15087891 C71.26678859 -0.17312254 77.87387367 -0.1845978 84.48103333 -0.18975449 C86.99095928 -0.19342538 89.50088285 -0.20059309 92.01078796 -0.21146011 C137.15872085 -0.39900839 137.15872085 -0.39900839 156 13 C156.94939453 13.67482422 156.94939453 13.67482422 157.91796875 14.36328125 C167.62684742 21.9717844 172.87768875 33.04861749 175 45 C176.29736233 62.45086549 174.99134014 77.09385758 163.41015625 90.89453125 C157.76629319 96.98990336 150.72588664 101.07186147 143 104 C143.97839844 104.35191406 144.95679688 104.70382813 145.96484375 105.06640625 C159.63040973 110.14278621 170.71664264 117.59514182 177.8125 130.8125 C184.82905645 146.36270619 185.32477191 164.52337118 180.2578125 180.76953125 C174.2390301 196.22770841 163.08082987 206.12050285 148.125 212.75 C134.72153465 218.02804853 121.19778346 219.12911871 106.94091797 219.20532227 C105.19771523 219.22017166 105.19771523 219.22017166 103.41929626 219.23532104 C99.61028013 219.26669576 95.80125157 219.29159769 91.9921875 219.31640625 C89.33846639 219.33699657 86.68475058 219.35794845 84.03103638 219.37937927 C77.78047501 219.4290699 71.52988929 219.47409523 65.27928078 219.51740164 C58.1570276 219.56697746 51.03481793 219.62181939 43.91260695 219.67708123 C29.27511256 219.79053797 14.63757485 219.89745445 0 220 C0.07068632 219.35483397 0.14137264 218.70966795 0.21420097 218.04495144 C1.15868657 208.33887501 1.14113302 198.68385927 1.12939453 188.94360352 C1.13075191 187.04176805 1.13253373 185.13993285 1.13470459 183.23809814 C1.13923915 178.10379549 1.13750572 172.96951307 1.1343255 167.83521008 C1.1317809 162.44278744 1.13414531 157.05036644 1.13571167 151.65794373 C1.13752741 142.60390921 1.13514286 133.54988288 1.13037109 124.49584961 C1.12493127 114.05419082 1.12669151 103.61255157 1.1321975 93.17089325 C1.13674758 84.17943803 1.13736986 75.18798867 1.13475883 66.19653267 C1.13320626 60.83798938 1.13297415 55.47945524 1.13629532 50.12091255 C1.13920157 45.08031941 1.1371481 40.03975124 1.13140106 34.99916077 C1.13008809 33.15823343 1.13044245 31.31730396 1.13266373 29.47637749 C1.14348006 19.59477978 0.97194441 9.8430456 0 0 Z M55 44 C55 57.2 55 70.4 55 84 C62.13537481 84.06897784 69.26958639 84.12868194 76.4050293 84.16479492 C78.83085049 84.17985409 81.25664458 84.20030562 83.68237305 84.22631836 C87.17503562 84.26282703 90.66733725 84.27975553 94.16015625 84.29296875 C95.77930687 84.31619453 95.77930687 84.31619453 97.4311676 84.33988953 C105.18107935 84.34161028 109.80605806 83.21119057 116.25 78.75 C120.63487831 74.36512169 122.1470199 70.17195242 122.4375 64.0625 C122.20163415 57.31468567 119.8644535 52.94920139 115.25 48.125 C108.17203556 43.49710018 100.68337543 43.72271619 92.5 43.8046875 C90.88557007 43.80893234 90.88557007 43.80893234 89.23852539 43.81326294 C85.82556701 43.82439269 82.4128781 43.84948405 79 43.875 C76.67578506 43.88503911 74.35156598 43.89416333 72.02734375 43.90234375 C66.35137699 43.92260059 60.67598756 43.96176356 55 44 Z M55 127 C55 142.84 55 158.68 55 175 C61.95614106 175.04605022 68.91174758 175.08583505 75.86791992 175.10986328 C78.23154498 175.11988618 80.59515775 175.13350806 82.95874023 175.15087891 C86.36705571 175.17529069 89.77520643 175.18652054 93.18359375 175.1953125 C94.75444984 175.21079636 94.75444984 175.21079636 96.35704041 175.22659302 C106.64106176 175.22814599 115.0722545 173.97450957 123 167 C128.16645041 160.41028501 128.76748189 153.09145192 128 145 C126.25692117 138.25869514 122.81779271 133.7371095 117 130 C109.99773889 126.67916698 103.15098119 126.60095911 95.52734375 126.70703125 C94.3636879 126.71127609 93.20003204 126.71552094 92.00111389 126.71989441 C88.31299942 126.73658215 84.62544714 126.77421681 80.9375 126.8125 C78.42513814 126.8275596 75.91276765 126.84124576 73.40039062 126.85351562 C67.26654035 126.88389125 61.13389367 126.94263418 55 127 Z " fill="#FFFFFF" transform="translate(124,64)"/>
<path d="M0 0 C19.14 0 38.28 0 58 0 C60.64 5.28 63.28 10.56 66 16 C67.51873845 18.65286228 69.01184236 21.21257634 70.66796875 23.765625 C71.07863083 24.41090149 71.48929291 25.05617798 71.91239929 25.7210083 C76.96295952 33.59917441 82.23260926 41.33450909 87.49356079 49.07290649 C98.06751109 64.63552317 108.55134665 80.25789029 118.92391968 95.95544434 C120.16698831 97.83596603 121.41159729 99.71547057 122.65786743 101.59387207 C124.40796736 104.23278673 126.15205456 106.87557853 127.89453125 109.51953125 C128.39553345 110.27323502 128.89653564 111.02693878 129.41271973 111.80348206 C133.9302621 118.68595843 137.96537397 125.82816463 142 133 C141.89185718 119.0549651 141.77889889 105.10997595 141.66066074 91.16502285 C141.60587273 84.68742273 141.55253177 78.20981791 141.50268555 71.73217773 C141.45438056 65.46215099 141.40202949 59.19216907 141.34705925 52.92219734 C141.32693039 50.54925744 141.30817545 48.1763054 141.29092598 45.80334282 C141.26621306 42.43843141 141.23627298 39.07359936 141.20532227 35.70874023 C141.1995668 34.76285034 141.19381134 33.81696045 141.18788147 32.84240723 C141.0756906 21.87211426 140.47746143 10.98161295 140 0 C158.48 0 176.96 0 196 0 C195.67 7.92 195.34 15.84 195 24 C194.91728011 29.94993758 194.86192505 35.8921876 194.87060547 41.84155273 C194.86924299 43.46953368 194.86745841 45.09751431 194.86529541 46.72549438 C194.86082106 51.06239827 194.86246852 55.39927778 194.8656745 59.73618197 C194.8682513 64.33014908 194.86584601 68.92411445 194.86428833 73.51808167 C194.86248169 81.22600672 194.86483285 88.93392212 194.86962891 96.6418457 C194.87506664 105.48165234 194.87330627 114.32143588 194.8678025 123.16124195 C194.86322574 130.82659869 194.86264295 138.49194858 194.86524117 146.15730625 C194.86677936 150.70227597 194.86706695 155.24723493 194.86370468 159.7922039 C194.85122931 179.22019985 194.96572122 198.59305844 196 218 C188.68614759 218.52826434 181.38690161 218.98604642 174.05851746 219.24200439 C170.64341859 219.36799066 167.24301374 219.53517516 163.83642578 219.81054688 C145.87205481 221.15639031 145.87205481 221.15639031 138 218 C131.64275019 212.43698032 128.52339094 204.58847147 125.30529785 196.94918823 C123.59383421 193.08230956 121.44157992 189.74626124 118.9921875 186.31640625 C118.19167382 185.14737067 117.39320809 183.97693038 116.59667969 182.80517578 C116.1841394 182.20360657 115.77159912 181.60203735 115.34655762 180.98223877 C112.64612241 177.00698566 110.02117616 172.9814327 107.3828125 168.96484375 C106.19657159 167.1626002 105.01020886 165.36043683 103.82373047 163.55834961 C101.95116958 160.71285996 100.07878586 157.86725394 98.206604 155.02151489 C91.85359608 145.36671329 85.50066018 135.71284403 79.046875 126.125 C78.5975058 125.45626358 78.1481366 124.78752716 77.68515015 124.098526 C75.66628307 121.09489872 73.64227593 118.09509387 71.60595703 115.10327148 C67.20395548 108.56545473 63.14840759 101.90318847 59.22314453 95.07055664 C58.7184816 94.19534615 58.21381866 93.32013565 57.69386292 92.41840363 C56.4610149 90.27982789 55.22976651 88.1403487 54 86 C54.10803651 100.10996062 54.22098102 114.21987497 54.33933926 128.32975292 C54.39417704 134.8836386 54.4475279 141.43752893 54.49731445 147.99145508 C54.54554359 154.33279547 54.59789547 160.67409038 54.65294075 167.01537514 C54.67310285 169.41787881 54.69185381 171.82039481 54.70907402 174.22292137 C54.73370962 177.62416347 54.76366548 181.02532446 54.79467773 184.42651367 C54.80331093 185.87016045 54.80331093 185.87016045 54.81211853 187.3429718 C54.91631249 197.59160499 55.51120326 207.73526845 56 218 C37.52 218 19.04 218 0 218 C0.33 209.75 0.66 201.5 1 193 C1.08198463 187.07867469 1.13817794 181.16510159 1.12939453 175.24438477 C1.1307575 173.63758302 1.13254235 172.03078158 1.13470459 170.42398071 C1.13917311 166.14905027 1.13753403 161.87414459 1.1343255 157.59921384 C1.13174553 153.06711349 1.13415483 148.53501489 1.13571167 144.00291443 C1.13751743 136.39931875 1.13516953 128.79573286 1.13037109 121.19213867 C1.12493356 112.47673111 1.12669395 103.76134698 1.1321975 95.04593998 C1.13677687 87.48330666 1.13735581 79.92068026 1.13475883 72.358046 C1.13322204 67.87621646 1.13292898 63.39439782 1.13629532 58.91256905 C1.13924514 54.69253731 1.13707224 50.47253492 1.13140106 46.25250626 C1.13011057 44.72986461 1.13040153 43.20722036 1.13266373 41.68457985 C1.15140067 27.75810407 0.536099 13.93857402 0 0 Z " fill="#FFFFFF" transform="translate(940,346)"/>
<path d="M0 0 C15.51749333 0.06077861 31.03483596 0.13844825 46.55214024 0.23571491 C53.75862214 0.28050186 60.96505651 0.31995487 68.17163086 0.34643555 C74.45974025 0.3695553 80.74769702 0.40310618 87.035685 0.44870156 C90.35896682 0.47244778 93.68196294 0.48973971 97.00534248 0.49761391 C119.39065606 0.55598417 140.79063263 1.20690333 159 16 C159.63550781 16.49886719 160.27101563 16.99773437 160.92578125 17.51171875 C169.07678927 24.68677459 174.28312682 36.79022959 175.21704102 47.4855957 C175.95895197 64.02853429 174.64331816 79.26351217 163.0703125 92.1484375 C157.13590638 97.82199061 150.30239031 101.38830773 143 105 C143.88300781 105.268125 144.76601563 105.53625 145.67578125 105.8125 C159.54084012 110.33986616 170.68720332 117.63191464 177.53125 130.98828125 C184.38423778 146.66648294 185.90177209 165.72797123 180 182 C173.36153403 197.71103613 162.33981076 207.27156964 146.8125 213.6875 C130.661686 219.38984273 115.23142067 219.47487763 98.23795438 219.50611091 C94.77461213 219.51560097 91.31139353 219.54181127 87.84812927 219.56611633 C81.31440785 219.60949654 74.7807108 219.63821715 68.24689001 219.66143972 C60.7980021 219.68864575 53.34924037 219.73254653 45.9004432 219.77772844 C30.6003607 219.8701659 15.30025433 219.94203202 0 220 C0.07068632 219.35483397 0.14137264 218.70966795 0.21420097 218.04495144 C1.15868657 208.33887501 1.14113302 198.68385927 1.12939453 188.94360352 C1.13075191 187.04176805 1.13253373 185.13993285 1.13470459 183.23809814 C1.13923915 178.10379549 1.13750572 172.96951307 1.1343255 167.83521008 C1.1317809 162.44278744 1.13414531 157.05036644 1.13571167 151.65794373 C1.13752741 142.60390921 1.13514286 133.54988288 1.13037109 124.49584961 C1.12493127 114.05419082 1.12669151 103.61255157 1.1321975 93.17089325 C1.13674758 84.17943803 1.13736986 75.18798867 1.13475883 66.19653267 C1.13320626 60.83798938 1.13297415 55.47945524 1.13629532 50.12091255 C1.13920157 45.08031941 1.1371481 40.03975124 1.13140106 34.99916077 C1.13008809 33.15823343 1.13044245 31.31730396 1.13266373 29.47637749 C1.14348006 19.59477978 0.97194441 9.8430456 0 0 Z M55 45 C55 58.2 55 71.4 55 85 C61.65322869 85.06914441 68.30519343 85.1287974 74.95849609 85.16479492 C77.21830487 85.17981295 79.47808484 85.20023345 81.73779297 85.22631836 C84.99974714 85.26300995 88.26131347 85.27979675 91.5234375 85.29296875 C92.52176605 85.30845261 93.5200946 85.32393646 94.54867554 85.33988953 C102.2808208 85.34171412 109.76635709 84.61443469 115.9375 79.625 C121.184033 72.94759437 122.89921753 67.43016435 122 59 C120.33980463 53.70361585 117.77488692 49.95588238 113 47 C107.15791624 44.3663995 101.31605926 44.74612756 95.0390625 44.8046875 C93.32050552 44.80893234 93.32050552 44.80893234 91.56723022 44.81326294 C87.91971245 44.82442865 84.27244315 44.84952701 80.625 44.875 C78.14713897 44.88503445 75.66927408 44.89415949 73.19140625 44.90234375 C67.12743218 44.92265177 61.06399317 44.9618083 55 45 Z M55 127 C55 142.84 55 158.68 55 175 C62.5079464 175.09212204 70.01391019 175.17167804 77.52197266 175.21972656 C80.07282173 175.23976872 82.62362527 175.26700993 85.17431641 175.30175781 C88.8533048 175.3506003 92.53168259 175.37304381 96.2109375 175.390625 C97.34050873 175.41127014 98.47007996 175.43191528 99.63388062 175.45318604 C107.76889781 175.45546099 114.92059972 174.22952522 121.4375 169.0703125 C127.39525339 161.65290953 128.87641106 155.49220594 128 146 C126.47995372 139.43162484 123.48341461 134.81082315 118 130.8125 C106.18326344 124.72874133 90.5614637 126.77550203 77.75 126.875 C70.2425 126.91625 62.735 126.9575 55 127 Z " fill="#FFFFFF" transform="translate(124,345)"/>
<path d="M0 0 C0.77307495 0.00054382 1.5461499 0.00108765 2.34265137 0.00164795 C14.24577969 0.04013652 25.54139832 0.63286981 36.9375 4.375 C37.95577881 4.70443604 37.95577881 4.70443604 38.99462891 5.04052734 C47.51635869 7.89999165 54.91682306 11.74096922 61.9375 17.375 C62.96230469 18.13876953 62.96230469 18.13876953 64.0078125 18.91796875 C75.62561231 28.1438686 82.39645533 42.03111987 85.5703125 56.25 C85.8295752 57.40242188 86.08883789 58.55484375 86.35595703 59.7421875 C86.54786621 60.61101562 86.73977539 61.47984375 86.9375 62.375 C79.30225886 63.23179724 71.66673454 64.08603524 64.03100586 64.93847656 C61.43230672 65.22889934 58.8336735 65.51991256 56.23510742 65.81152344 C52.50456553 66.23006162 48.77379338 66.64649062 45.04296875 67.0625 C43.87726852 67.19374268 42.7115683 67.32498535 41.51054382 67.46020508 C40.42964981 67.58032959 39.3487558 67.7004541 38.23510742 67.82421875 C37.28246506 67.93080811 36.32982269 68.03739746 35.34831238 68.1472168 C32.9375 68.375 32.9375 68.375 29.9375 68.375 C29.69515625 67.65054688 29.4528125 66.92609375 29.203125 66.1796875 C25.54386373 55.44154589 25.54386373 55.44154589 16.9375 48.5625 C7.4040866 44.0719135 -5.71645574 43.35473022 -15.75 46.875 C-20.624328 49.22783307 -24.06808719 52.91543107 -27.0625 57.375 C-28.57581566 61.91494698 -28.92180269 65.98999662 -27.296875 70.5 C-23.71580288 77.15776788 -17.68961358 79.9171617 -10.67041016 82.12866211 C-8.22748938 82.7359548 -5.78095635 83.25687097 -3.3125 83.75 C-1.38911473 84.1643995 0.53404994 84.57982374 2.45703125 84.99609375 C4.00511475 85.32456299 4.00511475 85.32456299 5.58447266 85.65966797 C41.5071481 93.32338131 41.5071481 93.32338131 53.9375 99.375 C54.8965625 99.81070313 55.855625 100.24640625 56.84375 100.6953125 C71.20271431 107.75379215 81.71012475 119.88547195 87.16015625 134.87890625 C93.08539622 153.90517931 91.00038855 175.71461447 81.9375 193.375 C71.38255886 210.97498558 55.30061806 219.84042516 35.98046875 225.48046875 C25.02027061 228.11971873 13.98270779 228.73673233 2.75 228.6875 C1.73844345 228.68426727 1.73844345 228.68426727 0.70645142 228.68096924 C-25.50734038 228.54715634 -52.68363033 223.49548474 -72.0625 204.375 C-82.75294321 191.54646815 -90.91398321 174.40466424 -90.0625 157.375 C-88.39496472 155.70746472 -86.28742275 156.01020183 -83.99194336 155.80249023 C-82.91089828 155.70246201 -81.82985321 155.60243378 -80.71604919 155.49937439 C-78.952015 155.34306297 -78.952015 155.34306297 -77.15234375 155.18359375 C-75.95517227 155.07402847 -74.75800079 154.9644632 -73.52455139 154.85157776 C-69.68340322 154.50101385 -65.84172353 154.15669582 -62 153.8125 C-59.40295754 153.57658163 -56.80595177 153.34025891 -54.20898438 153.10351562 C-47.82724206 152.52264321 -41.44505192 151.94690403 -35.0625 151.375 C-34.8756665 152.1788916 -34.68883301 152.9827832 -34.49633789 153.81103516 C-34.24102295 154.87628418 -33.98570801 155.9415332 -33.72265625 157.0390625 C-33.47394775 158.0904541 -33.22523926 159.1418457 -32.96899414 160.22509766 C-30.91793881 167.35214205 -27.65608913 172.75471702 -21.375 176.8125 C-10.03050208 182.78061887 3.27844183 184.55169042 15.77734375 181.1875 C21.74595553 178.94252487 27.3940304 176.23305922 30.5 170.4375 C33.12725204 163.81932701 33.3724939 158.46642971 31.046875 151.734375 C28.63497254 146.60483596 25.24915486 144.30164636 20.03662109 142.2121582 C7.66368081 138.04786806 -4.97496707 135.13988407 -17.6796875 132.17724609 C-39.6732411 127.02882074 -61.68445685 120.92985659 -74.9375 100.9375 C-84.24253379 85.21746645 -86.57916564 67.32260345 -82.9375 49.4375 C-79.82940102 38.09869446 -74.37077284 29.59717675 -66.0625 21.375 C-65.17498047 20.43720703 -65.17498047 20.43720703 -64.26953125 19.48046875 C-47.67746518 3.25467346 -22.04416631 -0.05833037 0 0 Z " fill="#FFFFFF" transform="translate(691.0625,340.625)"/>
<path d="M0 0 C1.10447479 -0.0092601 1.10447479 -0.0092601 2.23126221 -0.01870728 C26.89553253 -0.15153231 49.63701013 5.85928839 68.02734375 23.0546875 C77.54392638 32.97796169 86.3125 48.37817781 86.3125 62.4375 C78.67725886 63.29429724 71.04173454 64.14853524 63.40600586 65.00097656 C60.80730672 65.29139934 58.2086735 65.58241256 55.61010742 65.87402344 C51.87956553 66.29256162 48.14879338 66.70899062 44.41796875 67.125 C43.25226852 67.25624268 42.0865683 67.38748535 40.88554382 67.52270508 C39.80464981 67.64282959 38.7237558 67.7629541 37.61010742 67.88671875 C36.65746506 67.99330811 35.70482269 68.09989746 34.72331238 68.2097168 C32.3125 68.4375 32.3125 68.4375 29.3125 68.4375 C29.08175781 67.64085937 28.85101562 66.84421875 28.61328125 66.0234375 C26.10665969 57.87939434 24.12067978 52.27859939 16.3125 48.125 C7.58315301 43.95392089 -5.53366862 43.83343195 -14.8125 46.5625 C-20.55166145 48.94269487 -24.49319549 52.45943316 -27.6875 57.75 C-29.1201924 63.03305322 -29.33208671 67.55096677 -26.5546875 72.42578125 C-20.16200732 80.5825617 -10.91956744 82.33710885 -1.25 84.3125 C1.16178051 84.82922772 3.57323197 85.34749332 5.984375 85.8671875 C7.20318359 86.12725586 8.42199219 86.38732422 9.67773438 86.65527344 C63.30157296 98.19549233 63.30157296 98.19549233 80.1171875 120.87109375 C90.32162 136.73619403 92.08066882 157.93325658 88.18554688 176.15625 C83.79075334 193.52861032 73.84719884 206.68208153 58.9375 216.4375 C32.99567065 231.34524809 -3.19226785 232.51470207 -31.6875 225.4375 C-32.40534668 225.26589355 -33.12319336 225.09428711 -33.86279297 224.91748047 C-48.66132602 221.28679455 -60.848775 215.41051009 -71.6875 204.4375 C-72.32300781 203.82390625 -72.95851563 203.2103125 -73.61328125 202.578125 C-84.3593307 191.42701382 -90.85875477 172.85042932 -90.6875 157.4375 C-89.01996472 155.76996472 -86.91242275 156.07270183 -84.61694336 155.86499023 C-83.53589828 155.76496201 -82.45485321 155.66493378 -81.34104919 155.56187439 C-79.577015 155.40556297 -79.577015 155.40556297 -77.77734375 155.24609375 C-76.58017227 155.13652847 -75.38300079 155.0269632 -74.14955139 154.91407776 C-70.30840322 154.56351385 -66.46672353 154.21919582 -62.625 153.875 C-60.02795754 153.63908163 -57.43095177 153.40275891 -54.83398438 153.16601562 C-48.45224206 152.58514321 -42.07005192 152.00940403 -35.6875 151.4375 C-35.20156372 153.08842651 -35.20156372 153.08842651 -34.70581055 154.77270508 C-34.26653692 156.23010822 -33.826816 157.68737661 -33.38671875 159.14453125 C-33.06906555 160.23030457 -33.06906555 160.23030457 -32.74499512 161.3380127 C-30.24614729 169.54049822 -26.34476875 174.247202 -18.75 178.3125 C-6.28062113 183.85652025 6.62401003 184.15985539 19.55859375 179.63671875 C24.40476454 177.52640041 27.13338575 175.18584182 30.125 170.75 C32.51491073 164.08340692 33.27957711 157.7667961 30.3125 151.18359375 C26.2747728 144.13334351 19.41688285 141.63346324 11.96777344 139.46289062 C8.76031325 138.63280434 5.54983428 137.83084727 2.32781982 137.05999756 C0.2081087 136.55246986 -1.90858702 136.03370163 -4.02490234 135.51220703 C-10.55190348 133.9076018 -17.08723413 132.34059853 -23.62890625 130.796875 C-44.60909601 125.80190003 -63.27844823 119.3016167 -75.6875 100.4375 C-85.15210373 84.53895305 -87.15740924 65.81392624 -82.77734375 47.91015625 C-77.16845428 30.03810342 -65.90279403 18.1840404 -49.6875 9.4375 C-45.43917648 7.35864658 -41.21452187 5.80112121 -36.6875 4.4375 C-35.43066406 4.045625 -34.17382812 3.65375 -32.87890625 3.25 C-22.03141193 0.26238554 -11.17210937 0.03969695 0 0 Z " fill="#FFFFFF" transform="translate(1706.6875,340.5625)"/>
<path d="M0 0 C0 16.5 0 33 0 50 C-5.61 49.67 -11.22 49.34 -17 49 C-20.40249703 48.90142278 -23.78986397 48.81976446 -27.19165039 48.79467773 C-28.07195419 48.78477814 -28.952258 48.77487854 -29.85923767 48.76467896 C-32.68868585 48.73379316 -35.51815064 48.7086046 -38.34765625 48.68359375 C-40.34118517 48.66296 -42.33471551 48.64246368 -44.32824707 48.62210083 C-47.42380405 48.59028748 -50.51936033 48.55759284 -53.61489868 48.52319336 C-56.61834321 48.49054893 -59.62179014 48.45981598 -62.62524414 48.42996216 C-63.89417923 48.41698685 -65.16311394 48.40397569 -66.4320488 48.39092827 C-75.38255774 48.30089771 -84.33415296 48.24639286 -93.28515625 48.203125 C-95.32083557 48.19274628 -97.35651398 48.18228957 -99.39219284 48.17176056 C-101.347974 48.16158852 -103.30375672 48.15163811 -105.25954056 48.14190865 C-106.01368255 48.13815372 -106.76782453 48.13439878 -107.54482186 48.13053006 C-113.28233336 48.10212413 -113.28233336 48.10212413 -118 48 C-118 30.75 -118 13.5 -118 -4 C-77.53 -4 -37.06 -4 4 -4 C4 -2.68 4 -1.36 4 0 C2.68 0 1.36 0 0 0 Z " fill="#FFFFFF" transform="translate(564,63)"/>
<path d="M0 0 C0.94066406 0.0004834 1.88132812 0.0009668 2.85009766 0.00146484 C5.91354589 0.00765289 8.9767987 0.02367411 12.04022217 0.04077148 C14.13015668 0.0475378 16.22009686 0.05279872 18.31003952 0.05665588 C23.44483717 0.06715374 28.57948132 0.09072828 33.7142334 0.11798096 C34.77079178 0.12334704 35.82735016 0.12871312 36.91592407 0.13424182 C38.97528761 0.14500524 41.03462852 0.15578954 43.09394646 0.16659355 C49.65632223 0.20087025 56.2190925 0.23333488 62.78125 0.25 C62.78125 5.53 62.78125 10.81 62.78125 16.25 C53.22125 16.25 43.66125 16.25 33.78125 16.25 C33.78125 46.28 33.78125 76.31 33.78125 107.25 C27.84125 107.25 21.90125 107.25 15.78125 107.25 C15.78125 77.22 15.78125 47.19 15.78125 16.25 C6.55125 16.25 -2.67875 16.25 -12.1875 16.25 C-12.1875 10.97 -12.1875 5.69 -12.1875 0.25 C-8.23207532 0.16776133 -4.2766792 0.10546311 -0.32055664 0.05761719 C0.66532974 0.04477051 1.65121613 0.03192383 2.66697693 0.01869202 C1.77777778 0.01246159 0.88857863 0.00623116 0 0 Z " fill="#FFFFFF" transform="translate(178.21875,104.75)"/>
<path d="M0 0 C0.98739502 0.00687012 1.97479004 0.01374023 2.99211121 0.02081871 C5.63428985 0.04608171 8.27568085 0.09203285 10.91772461 0.14013672 C13.64149836 0.18321704 16.36524889 0.20518581 19.08935547 0.22338867 C21.17017666 0.24026663 23.25084281 0.27896868 25.33129883 0.33911133 C26.33045746 0.36195557 27.32961609 0.3847998 28.35905457 0.40833664 C35.15521424 0.62968515 40.86270169 1.7434888 46.21875 6.1875 C49.52075379 9.93722379 51.04148531 13.33257983 51.09375 18.3125 C50.87380543 22.72814852 49.29960517 25.88420873 46.21875 29 C40.37946262 32.72522193 34.43742892 33.10902656 27.828125 33.09765625 C26.46863281 33.10071777 26.46863281 33.10071777 25.0816803 33.10384178 C22.02088392 33.1064341 18.96043461 33.08986832 15.8996582 33.07006836 C13.6955899 33.06125892 11.49148909 33.06061132 9.28741455 33.06770325 C4.00145433 33.07974353 -1.28457441 33.07324041 -6.5703125 33.0625 C-6.5703125 55.5025 -6.5703125 77.9425 -6.5703125 101.0625 C-12.1803125 101.0625 -17.7903125 101.0625 -23.5703125 101.0625 C-23.5703125 67.7325 -23.5703125 34.4025 -23.5703125 0.0625 C-15.77227229 -0.06746787 -7.97512406 -0.04735607 0 0 Z M-6.5703125 15.0625 C-6.5703125 21.0025 -6.5703125 26.9425 -6.5703125 33.0625 C-2.42474237 33.06754674 1.72053264 33.07082167 5.86621094 33.07250977 C7.2788118 33.07410303 8.69141214 33.07623321 10.10401154 33.07894135 C17.67294601 33.08568719 23.87387161 32.65540395 29.6484375 27.3125 C31.81322871 24.27521101 32.00004696 21.69113617 31.78125 18 C31.2726774 15.13041596 30.12477314 13.24568554 27.83203125 11.43359375 C21.07448316 7.36899513 13.54717822 7.91684658 5.86621094 7.95874023 C1.72064081 7.97206673 -2.42463455 7.98539323 -6.5703125 8 C-6.5703125 10.31 -6.5703125 12.62 -6.5703125 15.0625 Z " fill="#FFFFFF" transform="translate(257.5703125,107.9375)"/>
<path d="M0 0 C5.61 0 11.22 0 17 0 C25.62458548 18.50643111 33.82126732 37.20098758 41.98046875 55.9140625 C43.17284771 58.64559323 44.37006184 61.37498195 45.5703125 64.10302734 C46.7175922 66.71179972 47.86137829 69.32204492 49.00390625 71.93261719 C49.50006287 73.06362823 49.99621948 74.19463928 50.50741577 75.35992432 C54.04955538 83.46550853 57.02343371 91.72946261 60 100 C54.06 100 48.12 100 42 100 C40.35 95.05 38.7 90.1 37 85 C22.81 85 8.62 85 -6 85 C-7.32 89.95 -8.64 94.9 -10 100 C-15.94 100 -21.88 100 -28 100 C-20.27574289 77.87545877 -11.09946782 56.33843177 -2.1875 34.671875 C-1.71714874 33.52889557 -1.24679749 32.38591614 -0.76219177 31.20829773 C0.03662634 29.26783115 0.83578919 27.32750648 1.63525391 25.38730621 C4.5731183 18.25430744 7.49409268 11.11425351 10.40625 3.97070312 C10.73835205 3.15751953 11.0704541 2.34433594 11.41262817 1.50650024 C12.26714735 -0.60450606 12.26714735 -0.60450606 14 0 C9.38 0 4.76 0 0 0 Z M16 24 C11.76 35.88 7.52 47.76 3 60 C12.9 60 22.8 60 33 60 C27.39 48.12 21.78 36.24 16 24 Z " fill="#FFFFFF" transform="translate(445,119)"/>
<path d="M0 0 C5.28 0 10.56 0 16 0 C16 33.33 16 66.66 16 101 C10.72 101 5.44 101 0 101 C0 67.67 0 34.34 0 0 Z " fill="#FFFFFF" transform="translate(786,108)"/>
<path d="M0 0 C5.94 0 11.88 0 18 0 C27.27231826 14.14301098 36.49622117 28.31391161 45.64892578 42.53466797 C46.48808133 43.83732675 47.32751478 45.13980659 48.16723633 46.44210052 C49.86395168 49.07312403 51.55871094 51.70540633 53.25219727 54.33851624 C53.93208832 55.39314245 53.93208832 55.39314245 54.62571716 56.46907043 C55.0332167 57.10177643 55.44071625 57.73448242 55.86056519 58.38635254 C57 60 57 60 58 61 C58.01380859 59.5702832 58.01380859 59.5702832 58.02789307 58.11167908 C58.14520224 46.3636928 58.42565999 34.62392456 58.8125 22.8828125 C58.85020264 21.68424515 58.88790527 20.4856778 58.92675018 19.25079346 C59.04272101 15.51626807 59.20961564 11.78814781 59.4375 8.05859375 C59.46811523 7.0319458 59.49873047 6.00529785 59.53027344 4.94754028 C59.61653199 3.4646709 59.71037747 1.98222388 59.8125 0.5 C59.85695312 -0.28166016 59.90140625 -1.06332031 59.94720459 -1.8686676 C60 0 60 0 60 1 C65.28 1 70.56 1 76 1 C76 34.66 76 68.32 76 103 C69.73 103 63.46 103 57 103 C46.82702467 88.73402654 37.4046956 73.97258925 28.0546875 59.15625 C26.93469612 57.38567907 25.81444091 55.61527498 24.69384766 53.84509277 C23.082666 51.29914739 21.47290118 48.75230994 19.86328125 46.20507812 C19.34081863 45.37843689 18.81835602 44.55179565 18.27905273 43.70010376 C17.22932857 42.03866318 16.18008701 40.37691699 15.13134766 38.71484375 C14.65703522 37.96382278 14.18272278 37.21280182 13.69403076 36.43902588 C12.82044383 35.05677372 11.9457817 33.67520006 11.0703125 32.29418945 C10.29792816 31.07482544 10.29792816 31.07482544 9.50994873 29.83082581 C9 29 9 29 8 28 C8 53.08 8 78.16 8 104 C2.72 104 -2.56 104 -8 104 C-8.19142899 99.5961868 -8.37456981 95.19367247 -8.5168457 90.78820801 C-8.57397152 89.05165557 -8.63245183 87.31514665 -8.69226074 85.57868385 C-8.80423076 82.33185435 -8.90311487 79.08489263 -9 75.83740234 C-9.10832936 72.46184898 -9.24735556 69.08769941 -9.39233398 65.71362305 C-9.67265149 58.30214555 -9.8503951 50.89191644 -9.9855957 43.47601318 C-10.04086435 40.35372344 -10.12611845 37.23270063 -10.26367188 34.11328125 C-10.52542492 28.14839431 -10.58494908 22.18874946 -10.5625 16.21875 C-10.5776709 15.1512207 -10.5928418 14.08369141 -10.60847282 12.98381042 C-10.66338756 8.68767861 -10.79913738 4.45834454 -11 0 C-7.04 0 -3.08 0 1 0 C1.33 0 1.66 0 2 0 C1.34 0 0.68 0 0 0 Z " fill="#FFFFFF" transform="translate(854,106)"/>
<path d="M0 0 C5.28 0 10.56 0 16 0 C16 28.05 16 56.1 16 85 C30.52 85 45.04 85 60 85 C60 90.28 60 95.56 60 101 C40.2 101 20.4 101 0 101 C0 67.67 0 34.34 0 0 Z " fill="#FFFFFF" transform="translate(598,108)"/>
<path d="M0 0 C5.28 0 10.56 0 16 0 C16 33 16 66 16 100 C10.72 100 5.44 100 0 100 C0 67 0 34 0 0 Z " fill="#FFFFFF" transform="translate(822,346)"/>
<path d="M0 0 C5.61 0 11.22 0 17 0 C27.8764375 25.43696484 27.8764375 25.43696484 38.78515625 50.859375 C40.09337429 53.90871091 41.39934166 56.9589096 42.703125 60.01000977 C44.54666765 64.32302386 46.39482232 68.63404257 48.2447052 72.94433594 C49.07861946 74.88870859 49.91140022 76.83356775 50.74320984 78.77883911 C51.91169453 81.51097845 53.08231462 84.24219639 54.25390625 86.97302246 C54.59054848 87.75912292 54.9271907 88.54522339 55.27305603 89.35514832 C56.17848545 91.47069228 57.08905341 93.58401593 58 95.69726562 C58.66 97.45795975 59.32 99.21865387 60 101 C54.39 101 48.78 101 43 101 C41.68 96.38 40.36 91.76 39 87 C25.48 87 11.96 87 -2 87 C-3.32 91.62 -4.64 96.24 -6 101 C-11.61 101 -17.22 101 -23 101 C-22.60344777 99.62985779 -22.20689554 98.25971558 -21.79832458 96.84805298 C-20.72909626 93.16342209 -19.65759354 89.47945866 -18.58569336 85.79541016 C-17.43035023 81.82519831 -16.27549097 77.8548454 -15.12109375 73.88433838 C-13.30637988 67.6462714 -11.49045769 61.40855751 -9.67337036 55.1711731 C-6.72068715 45.03889391 -3.76942351 34.90620128 -0.8203125 24.77294922 C-0.41895386 23.39403778 -0.01759521 22.01512634 0.3959198 20.59442139 C1.33904134 17.35304632 2.2825224 14.11177607 3.22631836 10.87059784 C4.29209445 7.20936686 5.35687164 3.54784616 6.42138672 -0.11380005 C7.65994829 0.34034115 8.89850986 0.79448235 10.17459106 1.26184082 C10.08013949 0.84122772 9.98568793 0.42061462 9.88837433 -0.01274109 C10 0 10 0 11 1 C11.33 1 11.66 1 12 1 C11.34 0.67 10.68 0.34 10 0 C6.7 0 3.4 0 0 0 Z M18 22 C13.94 34.54 9.88 47.08 5.6875 60 C15.639375 60 25.59125 60 35.84375 60 C29.94375 47.46 24.04375 34.92 18 22 Z " fill="#FFFFFF" transform="translate(411,346)"/>
<path d="M0 0 C5.61 0 11.22 0 17 0 C27.28839231 13.79163354 36.6554492 28.21684742 45.87109375 42.73828125 C46.72015625 44.07363281 47.56921875 45.40898438 48.4440155 46.78479004 C50.03750565 49.29031642 51.62972511 51.79664803 53.22070312 54.30371094 C56.80303241 59.93911417 60.42052017 65.55047677 64.04956055 71.15600586 C64.82046746 72.34650246 64.82046746 72.34650246 65.60694885 73.56105042 C66.09449143 74.31400955 66.582034 75.06696869 67.08435059 75.84274292 C67.51537445 76.5086338 67.94639832 77.17452469 68.39048767 77.8605957 C69 79 69 79 70 80 C70.020625 78.94425781 70.04125 77.88851562 70.0625 76.80078125 C70.23285996 68.78679214 70.63950357 60.78581666 71.125 52.78515625 C71.17013672 51.60930908 71.21527344 50.43346191 71.26177979 49.22200012 C71.40416344 45.56784428 71.58420609 41.91631071 71.8125 38.26660156 C71.84424561 37.24736786 71.87599121 36.22813416 71.90869904 35.17771912 C72.01878419 31.72781665 72.19856717 28.28373288 72.375 24.8359375 C72.52044922 21.99580078 72.66589844 19.15566406 72.81575584 16.22944641 C72.87727493 15.07798615 72.93879402 13.92652588 73.00217724 12.74017334 C73.15312357 9.9188304 73.29834022 7.09722914 73.4375 4.27539062 C73.70679665 -1.16780335 73.70679665 -1.16780335 75 0 C80.28 0 85.56 0 91 0 C91 34.32 91 68.64 91 104 C84.73 104 78.46 104 72 104 C58.43446042 86.45240884 46.58616961 67.71311252 35.15234375 48.73828125 C34.31999054 47.36014408 33.48732021 45.9821985 32.65434265 44.60443878 C30.42172703 40.9099725 28.19189059 37.21385808 25.96289062 33.51708984 C24.57399515 31.21368634 23.18362138 28.91117961 21.79174805 26.60954285 C20.83789367 25.03134175 19.88573588 23.45211494 18.93554688 21.8717041 C18.33572144 20.87584503 17.735896 19.87998596 17.1178894 18.85394287 C16.60244782 17.99717667 16.08700623 17.14041046 15.55593872 16.25769043 C14.96575531 15.27892181 14.96575531 15.27892181 14.36364746 14.28038025 C13 12 13 12 12 11 C12 42.35 12 73.7 12 106 C6.39 106 0.78 106 -5 106 C-5.11420431 103.00213786 -5.22677749 100.00430499 -5.33569336 97.00627136 C-5.38160465 95.78376628 -5.42751594 94.56126121 -5.47481823 93.30171204 C-5.61865174 89.37211658 -5.75500672 85.4424146 -5.890625 81.51251221 C-5.98176691 78.85692225 -6.07341295 76.20134954 -6.16552734 73.54579163 C-6.38707863 67.06246722 -6.6008029 60.57889623 -6.8125 54.09521484 C-7.03321928 47.33247639 -7.2671336 40.57027452 -7.51069832 33.80831015 C-7.67830066 29.15544764 -7.8410668 24.50244305 -8 19.84912109 C-8.09461126 17.08693073 -8.19257544 14.32496991 -8.296875 11.56312561 C-8.41250544 8.47646999 -8.50914522 5.39019936 -8.6015625 2.30273438 C-8.65011749 1.42109131 -8.69867249 0.53944824 -8.74869728 -0.36891174 C-8.8183433 -1.56602147 -8.8183433 -1.56602147 -8.88939667 -2.78731155 C-8.68256431 -2.34088991 -8.47573195 -1.89446827 -8.26263428 -1.43452454 C-8.07580078 -0.95606934 -7.88896729 -0.47761414 -7.69647217 0.01533508 C-6.80540104 0.01059113 -5.91432991 0.00584717 -4.9962616 0.0009594 C-3.33514947 -0.00453841 -1.67401753 -0.00465533 -0.01289368 -0.0002594 C0.51951117 -0.00192786 1.05191602 -0.00359631 1.60044861 -0.00531532 C0.53363241 -0.00354355 -0.5331838 -0.00177177 -1.63232422 0 C-1.08933594 0 -0.54634766 0 -0.0 0 Z " fill="#FFFFFF" transform="translate(933,343)"/>
<path d="M0 0 C5.61 0 11.22 0 17 0 C17 28.38 17 56.76 17 86 C31.19 86 45.38 86 60 86 C60 91.28 60 96.56 60 102 C40.2 102 20.4 102 0 102 C0 68.34 0 34.68 0 0 Z " fill="#FFFFFF" transform="translate(1284,345)"/>
<path d="M0 0 C2.86868132 0.00164948 5.73711969 0.01625718 8.60571289 0.03759766 C9.78344971 0.04286667 10.96118652 0.04813568 12.17460632 0.05356407 C20.31552536 0.09277085 28.04915577 0.33341488 34.875 5.25 C38.25173647 8.42845738 39.55795766 10.81831242 40.125 15.375 C40.14235352 16.31561157 40.15970703 17.25622314 40.17756653 18.2253418 C40.19644958 19.14057861 40.21533264 20.05581543 40.23478794 20.9987793 C40.25236267 22.42566589 40.25236267 22.42566589 40.27029419 23.88137817 C40.3034723 26.91375068 40.30662016 29.94537453 40.25 32.97851562 C40.22549213 35.04495773 40.22347749 37.11172992 40.24243164 39.17819214 C40.29169229 44.23775961 40.20711935 48.9524296 36.75 52.9375 C33.16043322 55.50523341 30.25301497 55.87888655 25.875 56.0625 C28.68070313 58.47210937 28.68070313 58.47210937 31.54296875 60.9296875 C36.62829218 65.36394452 38.35049465 70.77467622 40.22729492 77.12963867 C40.49727196 78.03413864 40.767249 78.93863861 41.04541016 79.87054443 C41.32383179 80.81650635 41.60225342 81.76246826 41.88911438 82.73709106 C42.17695801 83.70957031 42.46480164 84.68204956 42.7613678 85.68399048 C43.45423214 88.03309943 44.14302657 90.38341012 44.83154297 92.73379517 C45.38247627 94.6096709 45.934693 96.48517009 46.48828125 98.36026001 C47.78125 103 47.78125 103 48.78125 107 C42.51125 107 36.24125 107 29.78125 107 C29.04324483 104.6713857 28.30578838 102.34259748 27.56884766 100.01364136 C25.22143868 92.60425115 22.85277841 85.21052607 20.34887695 77.8526001 C19.89285442 76.50002929 19.43976309 75.14646681 18.98983765 73.79185486 C18.34866333 71.86374039 17.69527408 69.93998293 17.03710938 68.01757812 C16.840448 67.43498291 16.64378662 66.8523877 16.44116592 66.25213623 C14.79388469 61.60794194 13.17817113 59.04357003 8.78125 56.625 C4.7322893 55.69670979 1.0861044 55.60154684 -3.03125 55.6875 C-4.25375 55.72359375 -5.47625 55.7596875 -6.73535156 55.796875 C-8.82742187 55.86390625 -8.82742187 55.86390625 -10.9609375 55.93229103 C-12.0078125 55.96484375 -13.0546875 55.99739647 -14.13328552 56.03093529 C-14.67913086 56.04833984 -15.2249762 56.0657444 -15.78736115 56.08367634 C-17.11449834 56.12660691 -18.44129962 56.17960277 -19.7677002 56.24272156 C-19.7677002 73.74272156 -19.7677002 91.24272156 -19.7677002 109.27270508 C-25.3777002 109.27270508 -30.9877002 109.27270508 -36.7677002 109.27270508 C-36.7677002 73.97270508 -36.7677002 38.67270508 -36.7677002 2.30270508 C-34.1333592 2.15739044 -31.49899546 2.0137386 -28.86462402 1.87023926 C-27.3781184 1.78860153 -25.89161667 1.70689257 -24.40512085 1.62507629 C-20.17998657 1.39332743 -15.95483258 1.16194846 -11.72967529 0.93060303 C-9.79127361 0.82430873 -7.85289142 0.71765822 -5.91456604 0.60998535 C-2.90407203 0.44361644 0.10623044 0.27747639 3.11645508 0.11096191 C4.0117218 0.05932579 4.90698853 0.00768967 5.82939148 -0.04551172 C4.02392713 -0.0316114 2.21846277 -0.01771108 0.35829163 -0.00338936 C0.23995117 -0.00225957 0.12161072 -0.00112979 0 0 Z M-19.7677002 16.27270508 C-19.7677002 25.51270508 -19.7677002 34.75270508 -19.7677002 44.27270508 C-12.74145508 44.24731445 -5.71520996 44.22192383 1.5239563 44.19576263 C3.72756638 44.18402072 5.93116835 44.17188708 8.13476562 44.15937805 C11.28564133 44.14376192 14.43651535 44.13069482 17.58740234 44.11790466 C19.4089505 44.10895081 21.23049273 44.0987287 23.05203247 44.08718872 C27.07931223 44.06478297 30.18211691 43.7970636 33.78125 41.75 C37.52111669 37.51476675 37.26988549 31.94335508 37.19042969 26.51879883 C37.17752014 24.76397579 37.1811982 23.00891178 37.20117188 21.25390625 C37.22455789 14.36064644 37.22455789 14.36064644 33.53125 10.875 C28.7117183 8.20439727 23.87967768 8.39338133 18.48339844 8.45654297 C17.69335678 8.46073288 16.90331512 8.46492279 16.08933067 8.46923967 C13.48859303 8.48411663 10.88789903 8.50605563 8.28723145 8.52807617 C6.48398962 8.53603271 4.68073161 8.54105902 2.87747192 8.54341125 C-1.65853277 8.55123239 -6.19366122 8.57806703 -10.72961426 8.61105347 C-11.83099236 8.61669965 -12.93237046 8.62234582 -14.06712341 8.6281631 C-15.96898243 8.63982635 -17.86814542 8.65550956 -19.7677002 8.67270508 C-19.7677002 11.31270508 -19.7677002 13.95270508 -19.7677002 16.27270508 Z " fill="#FFFFFF" transform="translate(1576.7677002,101.72729492)"/>
<path d="M0 0 C5.28 0 10.56 0 16 0 C16 33.66 16 67.32 16 102 C10.72 102 5.44 102 0 102 C0 68.34 0 34.68 0 0 Z " fill="#FFFFFF" transform="translate(1403,107)"/>
<path d="M0 0 C0.65625 0 1.3125 0 1.98828125 0 C11.24008747 0.12990153 18.99607155 1.37742049 26.390625 7.51171875 C31.7944602 13.89498638 33.00131426 19.70282918 32.953125 27.86328125 C32.96472656 28.99576172 32.97632812 30.12824219 32.98828125 31.29443359 C32.98570312 32.49435547 32.983125 33.69427734 32.98046875 34.93066406 C32.98240234 36.1725 32.98433594 37.41433594 32.98632812 38.69380188 C32.98863626 42.82277137 32.9818623 46.9516424 32.97265625 51.08056641 C32.9707748 53.93369539 32.97146061 56.78682559 32.97460938 59.63995361 C32.98309879 66.12148029 32.97979826 72.60287355 32.96875 79.08447266 C32.95999492 84.81686928 32.96038423 90.54926139 32.96557617 96.28166199 C32.97528649 107.99451342 32.97960944 119.70731585 32.98242188 131.42016983 C32.98629815 144.56738246 32.99812855 157.71457658 33.01171875 170.86178207 C33.0397565 197.90784035 33.06106473 224.95391621 33.078125 252 C27.468125 252 21.858125 252 16.078125 252 C16.078125 228.57 16.078125 205.14 16.078125 181 C2.888125 181 -10.301875 181 -23.890625 181 C-25.540625 185.95 -27.190625 190.9 -28.890625 196 C-34.500625 196 -40.110625 196 -46 196 C-42.04382034 184.78142658 -37.79008311 173.68660966 -33.5234375 162.58203125 C-32.77292686 160.62430939 -32.02284698 158.66642226 -31.27313232 156.70839691 C-29.24113048 151.40195161 -27.20547011 146.0969107 -25.16821289 140.79248047 C-22.6295305 134.18166999 -20.09540801 127.56912814 -17.5625 120.95605469 C-13.15171164 109.44010928 -8.73839228 97.92513352 -4.32257152 86.41111755 C-1.75814526 79.72522218 0.8044582 73.0386301 3.37109375 66.35351562 C4.16674308 64.28163335 4.96257734 62.20982205 5.75860596 60.13808537 C6.78028982 57.47823401 7.801225 54.81809501 8.82177734 52.1578064 C9.20916611 51.1497324 9.59655487 50.1416584 9.99568176 49.1030426 C12.66538911 42.11915383 15.224379 35.12996316 17.60546875 28.04296875 C18.01697998 26.83078369 18.42849121 25.61859863 18.8524704 24.36967468 C21.75638541 15.73138356 24.53781006 7.05446414 27.21875 -1.65527344 C28.13317871 -4.62454224 28.13317871 -4.62454224 29.078125 -7.65380859 C30.07722499 -9.9882109 30.07722499 -9.9882109 30.078125 -12 C31.068125 -12 32.058125 -12 33.078125 -12 C33.408125 -8.37 33.738125 -4.74 34.078125 -1 C22.528125 -1 10.978125 -1 -0.921875 -1 C-0.608125 -0.67 -0.294375 -0.34 0.02929688 0 C0.01953125 0 0.00976562 0 0 0 Z M0.078125 128 C-3.821875 138.56 -7.721875 149.12 -11.640625 159.734375 C-12.32636108 161.59116699 -13.01215988 163.44793582 -13.69802856 165.30467892 C-15.3476131 169.77093909 -16.99333596 174.2385632 -18.63476562 178.70800781 C-20.72721716 184.4040354 -22.82578551 190.09776964 -24.92578125 195.79101562 C-27.76209861 203.48387371 -30.59416776 211.17831166 -33.421875 218.87451172 C-34.64602013 222.2051131 -35.87146192 225.53523789 -37.09765625 228.86523438 C-37.61301392 230.26442444 -38.12810806 231.66371156 -38.64289856 233.06311035 C-39.36411911 235.02289549 -40.08611166 236.98239646 -40.80859375 238.94171143 C-41.21946381 240.05678654 -41.63033386 241.17186165 -42.05365753 242.32072449 C-43 245 -43 245 -43 248 C-30.8 248 -18.6 248 -6 248 C1.59 225.89 9.18 203.78 17 181 C17 155.59 17 130.18 17 104 C11.39 110.6 5.78 117.2 0 124 C0.02648437 125.32 0.05296875 126.64 0.08025589 128.00001526 C0.07954542 128.00001526 0.07883496 128.00001526 0.078125 128 Z " fill="#FFFFFF" transform="translate(1450.921875,249)"/>
</svg>
